<svg width="30" height="30" viewBox="0 0 30 30" fill="none" xmlns="http://www.w3.org/2000/svg">
<path d="M14.9998 2.8125C14.4138 2.8125 13.8316 3.00938 13.3301 3.36938L11.7776 4.45312L9.98883 4.6875H9.95977L9.9307 4.71656C9.34405 4.84905 8.80696 5.14508 8.38168 5.57035C7.95641 5.99563 7.66037 6.53272 7.52789 7.11937L7.49977 7.14844V7.1775L7.26539 8.99437L6.18164 10.4006L6.15164 10.4297V10.4588C5.49633 11.5059 5.46727 12.8578 6.18164 13.8572L7.29445 15.4097L7.58789 17.0222L4.57008 21.6206L3.60352 23.0569H8.0857L9.16945 25.5759L9.84352 27.1875L10.8101 25.7222L13.7688 21.2691C14.5638 21.5953 15.461 21.6253 16.2307 21.2691L19.1895 25.7222L20.156 27.1875L20.8301 25.5759L21.9138 23.0569H26.396L25.4295 21.6206L22.4998 17.1684L22.7341 15.4106L23.8179 13.8581L23.8479 13.8291V13.8C24.5032 12.7528 24.5323 11.43 23.8179 10.4306L22.7341 8.87719L22.3826 7.11937H22.4116C22.4079 7.09687 22.3863 7.08188 22.3826 7.06031C22.2138 5.83406 21.2435 4.83844 20.0098 4.6875H19.9798L18.222 4.45312L16.6695 3.36938C16.1846 3.01417 15.6008 2.81946 14.9998 2.8125ZM14.9998 4.71656C15.2154 4.71656 15.4282 4.78219 15.5857 4.89281L17.2554 6.09375L17.4607 6.24L17.6951 6.27L19.7463 6.5625H19.7745C20.1963 6.60938 20.4888 6.90281 20.5366 7.32469V7.38281L20.9182 9.46312L20.9463 9.66844L21.0935 9.84375L22.2945 11.5134C22.5185 11.8247 22.5476 12.3525 22.2654 12.8025L20.9473 14.6484L20.9173 14.8828L20.6248 16.9341V16.9622C20.6092 17.1087 20.559 17.2494 20.4785 17.3728L20.4195 17.4028V17.4309C20.2801 17.5983 20.0803 17.7038 19.8635 17.7244H19.8045L17.666 18.1059L17.4316 18.1341L17.2554 18.2812L15.5857 19.4822C15.2745 19.7062 14.7176 19.7353 14.2676 19.4531L12.7441 18.2812L12.5679 18.135L12.3045 18.105L10.2532 17.8125H10.2251C10.0925 17.8008 9.96471 17.7574 9.85246 17.6859C9.7402 17.6145 9.64678 17.517 9.58008 17.4019C9.51778 17.2938 9.47792 17.1742 9.46289 17.0503V16.9922L9.08227 14.8538L9.05227 14.6194L8.90602 14.4431L7.70508 12.7734C7.48102 12.4622 7.45195 11.9053 7.73414 11.4553L8.90602 9.93187L9.05227 9.75563L9.08133 9.49219L9.3457 7.52906C9.34945 7.515 9.37102 7.515 9.37477 7.5C9.43321 7.27432 9.55096 7.06838 9.7158 6.90354C9.88065 6.73869 10.0866 6.62095 10.3123 6.5625C10.3273 6.55875 10.3273 6.53719 10.3413 6.53344L12.3045 6.26906L12.5388 6.24094L12.7441 6.09375L14.4138 4.89281C14.5713 4.78312 14.7841 4.71656 14.9998 4.71656ZM21.4741 18.9844L22.9104 21.1819H20.6529L20.4185 21.7678L19.7745 23.2612L17.7823 20.2144L18.221 19.8928L20.0679 19.5703V19.5994C20.0895 19.5956 20.1035 19.5741 20.126 19.5703C20.6194 19.4991 21.0856 19.2968 21.4741 18.9844ZM8.52539 19.0134C8.93248 19.3835 9.44388 19.6189 9.98977 19.6875H10.0188L11.8066 19.9219L12.2163 20.2444L10.2241 23.2612L9.58008 21.7678L9.3457 21.1819H7.09008L8.52539 19.0134Z" fill="#B8336A"/>
</svg>
