<svg width="30" height="30" viewBox="0 0 30 30" fill="none" xmlns="http://www.w3.org/2000/svg">
<path d="M14.9998 4.6875L14.7063 4.95094L4.0132 15.7622L3.36914 16.4062L4.0132 17.0803L12.9195 25.9866L13.5935 26.6306L14.2385 25.9866L25.0479 15.2925L25.3123 15V4.6875H14.9998ZM15.791 6.5625H23.4373V14.2087L13.5935 23.9944L6.00539 16.4062L15.791 6.5625ZM20.6248 8.4375C20.1091 8.4375 19.6873 8.85938 19.6873 9.375C19.6873 9.89062 20.1091 10.3125 20.6248 10.3125C21.1404 10.3125 21.5623 9.89062 21.5623 9.375C21.5623 8.85938 21.1404 8.4375 20.6248 8.4375Z" fill="#B8336A"/>
</svg>
