<svg xmlns="http://www.w3.org/2000/svg" xmlns:xlink="http://www.w3.org/1999/xlink" width="2304" zoomAndPan="magnify" viewBox="0 0 1728 2592.000001" height="3456" preserveAspectRatio="xMidYMid meet" version="1.0"><defs><g/><clipPath id="aa7efeb0a9"><path d="M 1243.386719 1262.5625 L 1612.246094 1262.5625 L 1612.246094 1354 L 1243.386719 1354 Z M 1243.386719 1262.5625 " clip-rule="nonzero"/></clipPath><clipPath id="ea08f8fc3c"><path d="M 138 1079 L 553 1079 L 553 1233 L 138 1233 Z M 138 1079 " clip-rule="nonzero"/></clipPath><clipPath id="ad24fa811f"><path d="M 137.550781 1078.449219 L 560.699219 1168.300781 L 539.054688 1270.238281 L 115.90625 1180.386719 Z M 137.550781 1078.449219 " clip-rule="nonzero"/></clipPath><clipPath id="f46a240819"><path d="M 137.550781 1078.449219 L 560.699219 1168.300781 L 539.054688 1270.238281 L 115.90625 1180.386719 Z M 137.550781 1078.449219 " clip-rule="nonzero"/></clipPath></defs><g fill="#ebaebf" fill-opacity="1"><g transform="translate(493.548588, 1384.844103)"><g><path d="M 2.75 18.4375 C 2.75 16.78125 3.4375 14.578125 4.8125 11.828125 C 6.1875 9.078125 7.65625 6.097656 9.21875 2.890625 C 10.78125 -0.316406 11.832031 -3.207031 12.375 -5.78125 L 15.6875 -36.59375 C 16.96875 -47.789062 18.707031 -60.222656 20.90625 -73.890625 C 23.113281 -87.554688 25.679688 -101.175781 28.609375 -114.75 C 31.546875 -128.320312 34.484375 -140.335938 37.421875 -150.796875 L 49.25 -189.59375 C 50.539062 -193.257812 51.597656 -195.828125 52.421875 -197.296875 C 53.242188 -198.765625 55.03125 -199.5 57.78125 -199.5 C 59.800781 -199.5 60.898438 -198.394531 61.078125 -196.1875 C 61.265625 -193.988281 61.082031 -191.375 60.53125 -188.34375 C 59.988281 -185.320312 59.300781 -182.4375 58.46875 -179.6875 C 57.644531 -176.9375 57.050781 -175.101562 56.6875 -174.1875 C 52.644531 -159.144531 48.789062 -143.734375 45.125 -127.953125 C 41.457031 -112.179688 38.25 -96.585938 35.5 -81.171875 C 35.132812 -78.421875 34.445312 -74.382812 33.4375 -69.0625 C 32.425781 -63.75 31.550781 -58.476562 30.8125 -53.25 C 30.082031 -48.019531 29.71875 -44.210938 29.71875 -41.828125 C 31.363281 -43.847656 32.367188 -45.269531 32.734375 -46.09375 C 33.109375 -46.914062 33.847656 -48.335938 34.953125 -50.359375 C 35.867188 -51.828125 36.785156 -53.335938 37.703125 -54.890625 C 38.617188 -56.453125 39.441406 -57.875 40.171875 -59.15625 C 43.835938 -65.21875 46.957031 -70.21875 49.53125 -74.15625 C 52.101562 -78.101562 54.535156 -81.585938 56.828125 -84.609375 C 59.117188 -87.640625 61.6875 -90.851562 64.53125 -94.25 C 67.375 -97.644531 70.90625 -101.910156 75.125 -107.046875 C 76.59375 -108.878906 79.207031 -111.71875 82.96875 -115.5625 C 86.726562 -119.414062 91.128906 -123.679688 96.171875 -128.359375 C 101.210938 -133.046875 106.347656 -137.539062 111.578125 -141.84375 C 116.804688 -146.15625 121.617188 -149.6875 126.015625 -152.4375 C 130.421875 -155.195312 133.726562 -156.578125 135.9375 -156.578125 C 139.238281 -156.578125 141.117188 -155.75 141.578125 -154.09375 C 142.035156 -152.445312 141.894531 -150.75 141.15625 -149 C 140.425781 -147.257812 139.785156 -146.207031 139.234375 -145.84375 C 137.765625 -144.738281 136.707031 -144.320312 136.0625 -144.59375 C 135.425781 -144.875 134.191406 -144.648438 132.359375 -143.921875 C 131.617188 -143.546875 130.789062 -142.945312 129.875 -142.125 C 128.957031 -141.300781 128.132812 -140.613281 127.40625 -140.0625 C 125.570312 -138.78125 123.875 -137.492188 122.3125 -136.203125 C 120.75 -134.921875 119.050781 -133.546875 117.21875 -132.078125 L 108.140625 -123.828125 C 105.578125 -121.253906 102.644531 -118.546875 99.34375 -115.703125 C 96.039062 -112.859375 92.828125 -109.695312 89.703125 -106.21875 L 73.46875 -87.5 C 65.21875 -77.414062 57.789062 -66.820312 51.1875 -55.71875 C 44.582031 -44.625 38.34375 -33.296875 32.46875 -21.734375 C 30.632812 -17.878906 29.117188 -14.757812 27.921875 -12.375 C 26.734375 -10 25.863281 -7.390625 25.3125 -4.546875 C 24.757812 -1.703125 24.484375 2.472656 24.484375 7.984375 C 29.992188 7.984375 35.363281 9.265625 40.59375 11.828125 C 45.820312 14.398438 50.773438 17.566406 55.453125 21.328125 C 60.128906 25.085938 64.300781 28.800781 67.96875 32.46875 L 102.359375 64.390625 C 103.460938 65.492188 104.65625 66.59375 105.9375 67.6875 C 107.226562 68.789062 108.515625 69.800781 109.796875 70.71875 C 111.265625 71.820312 112.5 72.832031 113.5 73.75 C 114.507812 74.664062 115.660156 75.671875 116.953125 76.765625 L 143.09375 97.40625 C 144.738281 99.238281 145.191406 100.890625 144.453125 102.359375 C 143.722656 103.828125 142.625 104.5625 141.15625 104.5625 C 140.238281 104.5625 138.222656 103.597656 135.109375 101.671875 C 131.992188 99.742188 128.414062 97.3125 124.375 94.375 C 120.34375 91.445312 116.304688 88.421875 112.265625 85.296875 C 108.234375 82.179688 104.75 79.429688 101.8125 77.046875 C 98.875 74.660156 96.945312 73.101562 96.03125 72.375 L 69.0625 47.875 C 65.582031 44.394531 61.179688 40.316406 55.859375 35.640625 C 50.535156 30.960938 45.03125 26.785156 39.34375 23.109375 C 33.65625 19.441406 28.429688 17.609375 23.671875 17.609375 C 23.671875 19.992188 23.53125 21.644531 23.25 22.5625 C 22.976562 23.476562 22.84375 25.035156 22.84375 27.234375 C 22.65625 29.992188 22.46875 33.523438 22.28125 37.828125 C 22.101562 42.140625 21.96875 46.726562 21.875 51.59375 C 21.78125 56.457031 21.78125 60.953125 21.875 65.078125 C 21.96875 69.203125 22.101562 72.367188 22.28125 74.578125 C 22.65625 77.328125 22.796875 80.164062 22.703125 83.09375 C 22.609375 86.03125 22.65625 88.875 22.84375 91.625 C 23.019531 95.476562 23.472656 99.742188 24.203125 104.421875 C 24.941406 109.097656 25.3125 113.085938 25.3125 116.390625 C 25.3125 119.691406 24.210938 121.34375 22.015625 121.34375 C 19.628906 121.34375 18.019531 120.609375 17.1875 119.140625 C 16.363281 117.679688 15.769531 115.847656 15.40625 113.640625 C 14.488281 108.503906 13.890625 102.585938 13.609375 95.890625 C 13.335938 89.203125 12.742188 82.738281 11.828125 76.5 C 11.460938 73.925781 11.1875 70.253906 11 65.484375 C 10.820312 60.722656 10.6875 55.585938 10.59375 50.078125 C 10.5 44.578125 10.453125 39.394531 10.453125 34.53125 C 10.453125 29.664062 10.453125 26.046875 10.453125 23.671875 L 8.53125 23.671875 C 7.25 23.296875 5.960938 22.878906 4.671875 22.421875 C 3.390625 21.960938 2.75 20.632812 2.75 18.4375 Z M 2.75 18.4375 "/></g></g></g><g fill="#ebaebf" fill-opacity="1"><g transform="translate(628.384528, 1384.844103)"><g><path d="M 12.65625 -49.8125 C 16.144531 -51.644531 20 -54.164062 24.21875 -57.375 C 28.4375 -60.582031 30.726562 -64.390625 31.09375 -68.796875 C 28.707031 -68.429688 26.179688 -67.144531 23.515625 -64.9375 C 20.859375 -62.738281 18.566406 -60.265625 16.640625 -57.515625 C 14.722656 -54.765625 13.394531 -52.195312 12.65625 -49.8125 Z M 0.28125 -43.203125 C 0.28125 -47.785156 1.789062 -52.738281 4.8125 -58.0625 C 7.84375 -63.382812 11.601562 -67.925781 16.09375 -71.6875 C 20.59375 -75.445312 25.039062 -77.328125 29.4375 -77.328125 C 35.5 -77.328125 38.664062 -75.03125 38.9375 -70.4375 C 39.207031 -65.851562 37.234375 -60.898438 33.015625 -55.578125 C 30.816406 -53.191406 27.515625 -50.441406 23.109375 -47.328125 C 18.710938 -44.210938 14.40625 -42.46875 10.1875 -42.09375 C 10.1875 -39.164062 10.273438 -36.550781 10.453125 -34.25 C 10.640625 -31.957031 11.925781 -29.617188 14.3125 -27.234375 C 16.695312 -24.859375 19.722656 -23.671875 23.390625 -23.671875 C 28.160156 -23.671875 33.113281 -25.179688 38.25 -28.203125 C 43.382812 -31.234375 47.328125 -33.753906 50.078125 -35.765625 C 51.179688 -36.679688 52.050781 -37.414062 52.6875 -37.96875 C 53.332031 -38.519531 54.113281 -39.164062 55.03125 -39.90625 C 58.882812 -42.832031 61.316406 -44.984375 62.328125 -46.359375 C 63.335938 -47.742188 64.207031 -48.664062 64.9375 -49.125 C 65.675781 -49.582031 67.421875 -49.8125 70.171875 -49.8125 C 70.535156 -47.789062 70.671875 -46.410156 70.578125 -45.671875 C 70.484375 -44.941406 69.796875 -43.84375 68.515625 -42.375 C 65.210938 -39.070312 61.039062 -35.3125 56 -31.09375 C 50.957031 -26.875 45.546875 -23.203125 39.765625 -20.078125 C 33.984375 -16.960938 28.25 -15.40625 22.5625 -15.40625 C 19.625 -15.40625 16.828125 -15.910156 14.171875 -16.921875 C 11.515625 -17.929688 8.992188 -19.628906 6.609375 -22.015625 C 3.304688 -25.316406 1.425781 -28.707031 0.96875 -32.1875 C 0.507812 -35.675781 0.28125 -39.347656 0.28125 -43.203125 Z M 0.28125 -43.203125 "/></g></g></g><g fill="#ebaebf" fill-opacity="1"><g transform="translate(716.166049, 1384.844103)"><g><path d="M 0.546875 -21.1875 C 0.546875 -30.363281 1.097656 -40.269531 2.203125 -50.90625 C 3.304688 -61.539062 4.773438 -72.085938 6.609375 -82.546875 C 8.441406 -93.003906 10.457031 -102.453125 12.65625 -110.890625 C 13.570312 -113.640625 14.488281 -116.710938 15.40625 -120.109375 C 16.320312 -123.503906 17.515625 -126.4375 18.984375 -128.90625 C 20.453125 -131.382812 22.378906 -132.625 24.765625 -132.625 C 26.960938 -132.625 28.335938 -131.800781 28.890625 -130.15625 C 29.441406 -128.507812 29.488281 -126.535156 29.03125 -124.234375 C 28.570312 -121.941406 27.972656 -119.832031 27.234375 -117.90625 C 26.503906 -115.976562 26.046875 -114.648438 25.859375 -113.921875 C 24.398438 -108.421875 22.707031 -100.945312 20.78125 -91.5 C 18.851562 -82.050781 17.015625 -71.726562 15.265625 -60.53125 C 13.523438 -49.34375 12.195312 -38.242188 11.28125 -27.234375 C 10.363281 -16.234375 10.179688 -6.285156 10.734375 2.609375 C 11.285156 11.503906 12.753906 18.335938 15.140625 23.109375 C 18.253906 21.460938 20.816406 18.988281 22.828125 15.6875 C 24.847656 12.382812 26.59375 9.171875 28.0625 6.046875 C 32.28125 -2.015625 36.40625 -10.539062 40.4375 -19.53125 C 44.476562 -28.519531 48.703125 -36.960938 53.109375 -44.859375 C 54.578125 -47.785156 56.132812 -49.25 57.78125 -49.25 C 58.519531 -49.25 59.117188 -48.925781 59.578125 -48.28125 C 60.035156 -47.644531 60.265625 -46.960938 60.265625 -46.234375 C 60.265625 -45.679688 59.53125 -43.9375 58.0625 -41 C 56.59375 -38.0625 55.078125 -35.03125 53.515625 -31.90625 C 51.960938 -28.789062 50.910156 -26.773438 50.359375 -25.859375 C 48.523438 -22.015625 46.457031 -17.519531 44.15625 -12.375 C 41.863281 -7.238281 39.617188 -2.195312 37.421875 2.75 C 35.222656 7.707031 33.113281 11.925781 31.09375 15.40625 C 30.175781 16.875 28.9375 18.847656 27.375 21.328125 C 25.820312 23.804688 24.125 25.960938 22.28125 27.796875 C 20.445312 29.628906 18.335938 30.546875 15.953125 30.546875 C 12.285156 30.546875 9.394531 28.707031 7.28125 25.03125 C 5.175781 21.363281 3.664062 16.78125 2.75 11.28125 C 1.832031 5.78125 1.234375 0.0976562 0.953125 -5.765625 C 0.679688 -11.640625 0.546875 -16.78125 0.546875 -21.1875 Z M 0.546875 -21.1875 "/></g></g></g><g fill="#ebaebf" fill-opacity="1"><g transform="translate(792.665547, 1384.844103)"><g><path d="M 0 -27.796875 C 0 -31.648438 0.914062 -36.414062 2.75 -42.09375 C 4.582031 -47.78125 7.148438 -53.421875 10.453125 -59.015625 C 13.753906 -64.617188 17.5625 -69.253906 21.875 -72.921875 C 26.1875 -76.585938 30.726562 -78.421875 35.5 -78.421875 C 39.894531 -78.421875 43.46875 -77.132812 46.21875 -74.5625 C 48.976562 -72 50.628906 -69.382812 51.171875 -66.71875 C 51.722656 -64.0625 50.8125 -62.734375 48.4375 -62.734375 C 46.59375 -62.734375 44.707031 -63.785156 42.78125 -65.890625 C 40.863281 -68.003906 38.617188 -69.0625 36.046875 -69.0625 C 34.023438 -69.0625 31.59375 -67.867188 28.75 -65.484375 C 25.90625 -63.097656 22.46875 -58.421875 18.4375 -51.453125 C 16.601562 -48.515625 14.90625 -44.707031 13.34375 -40.03125 C 11.78125 -35.351562 11 -30.722656 11 -26.140625 C 11.375 -26.503906 11.515625 -26.640625 11.421875 -26.546875 C 11.328125 -26.460938 11.644531 -26.785156 12.375 -27.515625 L 14.578125 -30.8125 C 16.046875 -33.019531 17.742188 -35.863281 19.671875 -39.34375 C 21.597656 -42.832031 23.570312 -46.363281 25.59375 -49.9375 C 27.613281 -53.519531 29.445312 -56.546875 31.09375 -59.015625 C 32.75 -61.492188 34.035156 -62.734375 34.953125 -62.734375 C 38.253906 -62.734375 40.175781 -61.539062 40.71875 -59.15625 C 41.269531 -56.769531 41.5 -53.832031 41.40625 -50.34375 C 41.320312 -46.863281 41.644531 -43.382812 42.375 -39.90625 C 43.476562 -34.945312 45.175781 -31.320312 47.46875 -29.03125 C 49.757812 -26.738281 52.375 -25.59375 55.3125 -25.59375 C 60.445312 -25.59375 66.132812 -28.710938 72.375 -34.953125 C 74.9375 -37.335938 76.769531 -39.304688 77.875 -40.859375 C 78.976562 -42.421875 80.445312 -44.210938 82.28125 -46.234375 C 83.5625 -48.066406 85.210938 -48.984375 87.234375 -48.984375 C 89.242188 -48.984375 90.113281 -47.285156 89.84375 -43.890625 C 89.570312 -40.492188 85.945312 -35.40625 78.96875 -28.625 L 70.71875 -22.015625 C 65.394531 -18.347656 60.257812 -16.515625 55.3125 -16.515625 C 50.726562 -16.515625 46.738281 -17.890625 43.34375 -20.640625 C 39.945312 -23.390625 37.332031 -26.78125 35.5 -30.8125 C 33.664062 -34.851562 32.75 -38.800781 32.75 -42.65625 C 31.457031 -41.738281 29.984375 -39.71875 28.328125 -36.59375 C 26.679688 -33.476562 24.894531 -30.128906 22.96875 -26.546875 C 21.050781 -22.972656 19.082031 -19.851562 17.0625 -17.1875 C 15.039062 -14.53125 13.019531 -13.203125 11 -13.203125 C 5.863281 -13.203125 2.742188 -14.394531 1.640625 -16.78125 C 0.546875 -19.164062 0 -22.835938 0 -27.796875 Z M 0 -27.796875 "/></g></g></g><g fill="#ebaebf" fill-opacity="1"><g transform="translate(900.534678, 1384.844103)"><g><path d="M 7.984375 110.34375 C 13.296875 110.34375 18.0625 108.78125 22.28125 105.65625 C 26.507812 102.539062 30.226562 98.78125 33.4375 94.375 C 36.644531 89.976562 39.347656 85.851562 41.546875 82 C 43.566406 78.144531 45.8125 72.640625 48.28125 65.484375 C 50.757812 58.335938 53.097656 50.585938 55.296875 42.234375 C 57.503906 33.890625 59.390625 26 60.953125 18.5625 C 62.515625 11.132812 63.476562 5.3125 63.84375 1.09375 C 61.632812 2.382812 59.613281 3.765625 57.78125 5.234375 L 30.8125 29.171875 C 30.082031 29.898438 29.347656 30.769531 28.609375 31.78125 C 27.878906 32.789062 26.960938 33.753906 25.859375 34.671875 C 21.460938 39.078125 17.519531 43.476562 14.03125 47.875 C 10.550781 52.28125 7.066406 57.144531 3.578125 62.46875 C 1.921875 64.851562 0.175781 67.878906 -1.65625 71.546875 C -3.488281 75.210938 -5 79.109375 -6.1875 83.234375 C -7.382812 87.367188 -7.84375 91.453125 -7.5625 95.484375 C -7.289062 99.515625 -5.78125 103 -3.03125 105.9375 C -0.644531 108.875 3.023438 110.34375 7.984375 110.34375 Z M 14.3125 -24.21875 C 17.0625 -25.6875 20.269531 -28.570312 23.9375 -32.875 C 27.601562 -37.1875 31.453125 -42.320312 35.484375 -48.28125 C 39.523438 -54.25 43.472656 -60.394531 47.328125 -66.71875 C 51.179688 -73.050781 54.710938 -78.921875 57.921875 -84.328125 C 61.128906 -89.742188 63.648438 -94.101562 65.484375 -97.40625 C 67.691406 -101.082031 69.207031 -103.515625 70.03125 -104.703125 C 70.851562 -105.890625 72.734375 -106.484375 75.671875 -106.484375 C 77.140625 -106.484375 78.238281 -105.425781 78.96875 -103.3125 C 79.707031 -101.207031 80.257812 -98.640625 80.625 -95.609375 C 80.988281 -92.585938 81.171875 -89.703125 81.171875 -86.953125 C 81.171875 -84.203125 81.171875 -82.09375 81.171875 -80.625 L 81.171875 -59.4375 C 81.171875 -54.851562 80.941406 -49.988281 80.484375 -44.84375 C 80.023438 -39.707031 79.613281 -34.9375 79.25 -30.53125 C 78.882812 -26.132812 78.703125 -22.65625 78.703125 -20.09375 L 118.046875 -42.921875 C 118.960938 -43.472656 120.890625 -44.757812 123.828125 -46.78125 C 126.765625 -48.800781 129.238281 -49.8125 131.25 -49.8125 C 132.90625 -49.8125 133.734375 -48.800781 133.734375 -46.78125 C 133.734375 -45.5 132.21875 -43.753906 129.1875 -41.546875 C 126.164062 -39.347656 122.957031 -37.332031 119.5625 -35.5 C 116.164062 -33.664062 113.921875 -32.378906 112.828125 -31.640625 C 107.140625 -28.523438 101.492188 -25.175781 95.890625 -21.59375 C 90.296875 -18.019531 84.84375 -14.398438 79.53125 -10.734375 C 78.238281 -9.816406 77.546875 -9.035156 77.453125 -8.390625 C 77.367188 -7.742188 77.140625 -6.414062 76.765625 -4.40625 C 75.484375 4.582031 73.648438 14.765625 71.265625 26.140625 C 68.878906 37.515625 65.941406 48.613281 62.453125 59.4375 C 58.972656 70.257812 54.941406 79.335938 50.359375 86.671875 C 47.785156 91.628906 44.34375 96.535156 40.03125 101.390625 C 35.726562 106.253906 30.914062 110.289062 25.59375 113.5 C 20.269531 116.71875 14.582031 118.328125 8.53125 118.328125 C 1.738281 118.328125 -3.945312 116.03125 -8.53125 111.4375 C -13.113281 106.851562 -15.40625 100.4375 -15.40625 92.1875 C -15.40625 86.132812 -13.84375 79.617188 -10.71875 72.640625 C -7.601562 65.671875 -3.4375 58.5625 1.78125 51.3125 C 7.007812 44.070312 12.648438 37.148438 18.703125 30.546875 C 24.765625 23.941406 30.820312 17.929688 36.875 12.515625 C 42.925781 7.109375 48.335938 2.660156 53.109375 -0.828125 C 54.023438 -1.742188 54.847656 -2.429688 55.578125 -2.890625 C 56.316406 -3.347656 57.238281 -3.941406 58.34375 -4.671875 C 60.90625 -6.878906 62.78125 -8.394531 63.96875 -9.21875 C 65.164062 -10.039062 65.859375 -11.644531 66.046875 -14.03125 C 67.140625 -23.382812 68.144531 -32.003906 69.0625 -39.890625 C 69.976562 -47.785156 70.664062 -55.90625 71.125 -64.25 C 71.582031 -72.59375 71.8125 -81.992188 71.8125 -92.453125 C 71.269531 -92.085938 69.757812 -89.929688 67.28125 -85.984375 C 64.800781 -82.046875 62 -77.460938 58.875 -72.234375 C 55.757812 -67.003906 52.828125 -62.140625 50.078125 -57.640625 C 47.328125 -53.148438 45.398438 -50.082031 44.296875 -48.4375 C 41.546875 -44.03125 38.195312 -38.84375 34.25 -32.875 C 30.3125 -26.914062 26.507812 -22.195312 22.84375 -18.71875 C 19.351562 -15.59375 16.140625 -14.03125 13.203125 -14.03125 C 10.273438 -14.03125 7.800781 -15.453125 5.78125 -18.296875 C 3.757812 -21.140625 2.75 -24.945312 2.75 -29.71875 C 2.75 -32.65625 3.113281 -36.320312 3.84375 -40.71875 C 4.582031 -45.125 5.6875 -49.484375 7.15625 -53.796875 C 8.625 -58.109375 10.320312 -61.726562 12.25 -64.65625 C 14.175781 -67.59375 16.238281 -69.0625 18.4375 -69.0625 C 21.550781 -69.0625 23.109375 -67.960938 23.109375 -65.765625 C 23.109375 -63.566406 22.375 -60.492188 20.90625 -56.546875 C 19.445312 -52.597656 17.984375 -47.875 16.515625 -42.375 C 15.046875 -36.875 14.3125 -30.820312 14.3125 -24.21875 Z M 14.3125 -24.21875 "/></g></g></g><g fill="#ebaebf" fill-opacity="1"><g transform="translate(1052.431304, 1384.844103)"><g><path d="M 0 -27.796875 C 0 -31.648438 0.914062 -36.414062 2.75 -42.09375 C 4.582031 -47.78125 7.148438 -53.421875 10.453125 -59.015625 C 13.753906 -64.617188 17.5625 -69.253906 21.875 -72.921875 C 26.1875 -76.585938 30.726562 -78.421875 35.5 -78.421875 C 39.894531 -78.421875 43.46875 -77.132812 46.21875 -74.5625 C 48.976562 -72 50.628906 -69.382812 51.171875 -66.71875 C 51.722656 -64.0625 50.8125 -62.734375 48.4375 -62.734375 C 46.59375 -62.734375 44.707031 -63.785156 42.78125 -65.890625 C 40.863281 -68.003906 38.617188 -69.0625 36.046875 -69.0625 C 34.023438 -69.0625 31.59375 -67.867188 28.75 -65.484375 C 25.90625 -63.097656 22.46875 -58.421875 18.4375 -51.453125 C 16.601562 -48.515625 14.90625 -44.707031 13.34375 -40.03125 C 11.78125 -35.351562 11 -30.722656 11 -26.140625 C 11.375 -26.503906 11.515625 -26.640625 11.421875 -26.546875 C 11.328125 -26.460938 11.644531 -26.785156 12.375 -27.515625 L 14.578125 -30.8125 C 16.046875 -33.019531 17.742188 -35.863281 19.671875 -39.34375 C 21.597656 -42.832031 23.570312 -46.363281 25.59375 -49.9375 C 27.613281 -53.519531 29.445312 -56.546875 31.09375 -59.015625 C 32.75 -61.492188 34.035156 -62.734375 34.953125 -62.734375 C 38.253906 -62.734375 40.175781 -61.539062 40.71875 -59.15625 C 41.269531 -56.769531 41.5 -53.832031 41.40625 -50.34375 C 41.320312 -46.863281 41.644531 -43.382812 42.375 -39.90625 C 43.476562 -34.945312 45.175781 -31.320312 47.46875 -29.03125 C 49.757812 -26.738281 52.375 -25.59375 55.3125 -25.59375 C 60.445312 -25.59375 66.132812 -28.710938 72.375 -34.953125 C 74.9375 -37.335938 76.769531 -39.304688 77.875 -40.859375 C 78.976562 -42.421875 80.445312 -44.210938 82.28125 -46.234375 C 83.5625 -48.066406 85.210938 -48.984375 87.234375 -48.984375 C 89.242188 -48.984375 90.113281 -47.285156 89.84375 -43.890625 C 89.570312 -40.492188 85.945312 -35.40625 78.96875 -28.625 L 70.71875 -22.015625 C 65.394531 -18.347656 60.257812 -16.515625 55.3125 -16.515625 C 50.726562 -16.515625 46.738281 -17.890625 43.34375 -20.640625 C 39.945312 -23.390625 37.332031 -26.78125 35.5 -30.8125 C 33.664062 -34.851562 32.75 -38.800781 32.75 -42.65625 C 31.457031 -41.738281 29.984375 -39.71875 28.328125 -36.59375 C 26.679688 -33.476562 24.894531 -30.128906 22.96875 -26.546875 C 21.050781 -22.972656 19.082031 -19.851562 17.0625 -17.1875 C 15.039062 -14.53125 13.019531 -13.203125 11 -13.203125 C 5.863281 -13.203125 2.742188 -14.394531 1.640625 -16.78125 C 0.546875 -19.164062 0 -22.835938 0 -27.796875 Z M 0 -27.796875 "/></g></g></g><g fill="#ebaebf" fill-opacity="1"><g transform="translate(1160.300435, 1384.844103)"><g><path d="M 0 -27.796875 C 0 -31.648438 0.914062 -36.414062 2.75 -42.09375 C 4.582031 -47.78125 7.148438 -53.421875 10.453125 -59.015625 C 13.753906 -64.617188 17.5625 -69.253906 21.875 -72.921875 C 26.1875 -76.585938 30.726562 -78.421875 35.5 -78.421875 C 39.894531 -78.421875 43.46875 -77.132812 46.21875 -74.5625 C 48.976562 -72 50.628906 -69.382812 51.171875 -66.71875 C 51.722656 -64.0625 50.8125 -62.734375 48.4375 -62.734375 C 46.59375 -62.734375 44.707031 -63.785156 42.78125 -65.890625 C 40.863281 -68.003906 38.617188 -69.0625 36.046875 -69.0625 C 34.023438 -69.0625 31.59375 -67.867188 28.75 -65.484375 C 25.90625 -63.097656 22.46875 -58.421875 18.4375 -51.453125 C 16.601562 -48.515625 14.90625 -44.707031 13.34375 -40.03125 C 11.78125 -35.351562 11 -30.722656 11 -26.140625 C 11.375 -26.503906 11.515625 -26.640625 11.421875 -26.546875 C 11.328125 -26.460938 11.644531 -26.785156 12.375 -27.515625 L 14.578125 -30.8125 C 16.046875 -33.019531 17.742188 -35.863281 19.671875 -39.34375 C 21.597656 -42.832031 23.570312 -46.363281 25.59375 -49.9375 C 27.613281 -53.519531 29.445312 -56.546875 31.09375 -59.015625 C 32.75 -61.492188 34.035156 -62.734375 34.953125 -62.734375 C 38.253906 -62.734375 40.175781 -61.539062 40.71875 -59.15625 C 41.269531 -56.769531 41.5 -53.832031 41.40625 -50.34375 C 41.320312 -46.863281 41.644531 -43.382812 42.375 -39.90625 C 43.476562 -34.945312 45.175781 -31.320312 47.46875 -29.03125 C 49.757812 -26.738281 52.375 -25.59375 55.3125 -25.59375 C 60.445312 -25.59375 66.132812 -28.710938 72.375 -34.953125 C 74.9375 -37.335938 76.769531 -39.304688 77.875 -40.859375 C 78.976562 -42.421875 80.445312 -44.210938 82.28125 -46.234375 C 83.5625 -48.066406 85.210938 -48.984375 87.234375 -48.984375 C 89.242188 -48.984375 90.113281 -47.285156 89.84375 -43.890625 C 89.570312 -40.492188 85.945312 -35.40625 78.96875 -28.625 L 70.71875 -22.015625 C 65.394531 -18.347656 60.257812 -16.515625 55.3125 -16.515625 C 50.726562 -16.515625 46.738281 -17.890625 43.34375 -20.640625 C 39.945312 -23.390625 37.332031 -26.78125 35.5 -30.8125 C 33.664062 -34.851562 32.75 -38.800781 32.75 -42.65625 C 31.457031 -41.738281 29.984375 -39.71875 28.328125 -36.59375 C 26.679688 -33.476562 24.894531 -30.128906 22.96875 -26.546875 C 21.050781 -22.972656 19.082031 -19.851562 17.0625 -17.1875 C 15.039062 -14.53125 13.019531 -13.203125 11 -13.203125 C 5.863281 -13.203125 2.742188 -14.394531 1.640625 -16.78125 C 0.546875 -19.164062 0 -22.835938 0 -27.796875 Z M 0 -27.796875 "/></g></g></g><g clip-path="url(#aa7efeb0a9)"><path fill="#ebaebf" d="M 1244.761719 1334.773438 C 1300.277344 1300.933594 1332.769531 1305.984375 1391.691406 1326.976562 C 1458.5625 1353.851562 1522.367188 1367.582031 1575.554688 1306.792969 C 1586.441406 1294.238281 1595.242188 1280.015625 1602.96875 1265.304688 C 1604.195312 1262.902344 1607.160156 1261.96875 1609.539062 1263.21875 C 1612.015625 1264.496094 1612.875 1267.632812 1611.453125 1270.035156 C 1602.601562 1284.796875 1592.375 1298.800781 1580.53125 1311.332031 C 1541.519531 1353.1875 1492.351562 1361.820312 1438.625 1346.664062 C 1413.910156 1340.289062 1391.03125 1329.035156 1366.558594 1322.292969 C 1342.648438 1315.425781 1316.953125 1310.054688 1292.652344 1317.683594 C 1276.6875 1322.414062 1261.804688 1330.433594 1247.679688 1339.433594 C 1244.785156 1341.34375 1241.476562 1336.855469 1244.761719 1334.75 Z M 1244.761719 1334.773438 " fill-opacity="1" fill-rule="nonzero"/></g><g clip-path="url(#ea08f8fc3c)"><g clip-path="url(#ad24fa811f)"><g clip-path="url(#f46a240819)"><path fill="#ebaebf" d="M 149.273438 1085.632812 C 139.648438 1217.542969 265.34375 1209.550781 358.996094 1190.113281 C 426.300781 1175.757812 471.203125 1178.019531 523.078125 1228.074219 C 523.078125 1228.074219 518.589844 1231.351562 518.589844 1231.351562 C 514.148438 1223.007812 510.722656 1213.875 509.800781 1204.136719 C 505.1875 1160.171875 562.082031 1148.199219 551.707031 1198.878906 C 550.488281 1203.777344 543.320312 1202.074219 544.382812 1197.195312 C 546.101562 1189.953125 547.210938 1179.980469 541.589844 1174.761719 C 539.164062 1172.597656 535.476562 1172.097656 531.859375 1173.238281 C 519.753906 1177.292969 514.871094 1191.417969 515.914062 1203.628906 C 516.5625 1212.25 519.546875 1220.773438 523.613281 1228.703125 C 524.363281 1230.152344 523.78125 1231.910156 522.339844 1232.636719 C 521.183594 1233.214844 519.816406 1232.976562 518.941406 1232.121094 C 499.167969 1211.214844 474.46875 1194.082031 445.945312 1188.285156 C 417.238281 1182.367188 388.074219 1188.089844 359.699219 1193.976562 C 321.449219 1202.152344 282.355469 1209.21875 242.964844 1206.140625 C 202.039062 1203.378906 162.320312 1185.199219 147.113281 1144.375 C 139.847656 1125.402344 137.941406 1104.988281 138.574219 1085.140625 C 138.664062 1082.167969 141.144531 1079.832031 144.117188 1079.921875 C 147.136719 1080.023438 149.5 1082.613281 149.273438 1085.632812 Z M 149.273438 1085.632812 " fill-opacity="1" fill-rule="nonzero"/></g></g></g></svg>